<?xml version="1.0" encoding="utf-8"?>
<!-- Generator: Adobe Illustrator 24.0.1, SVG Export Plug-In . SVG Version: 6.00 Build 0)  -->
<svg version="1.1" id="Layer_1" xmlns="http://www.w3.org/2000/svg" xmlns:xlink="http://www.w3.org/1999/xlink" x="0px" y="0px"
	 viewBox="0 0 1920 1080" style="enable-background:new 0 0 1920 1080;" xml:space="preserve">
<style type="text/css">
	.st0{fill:#1E7880;}
</style>
<path class="st0" d="M1720.66,536.57c3.07-41.44,31.08-58.32,62.16-58.32c36.83,0,58.71,29.16,59.47,58.32H1720.66z M1720.27,566.5
	h158.85c4.6-65.23-33.38-118.18-96.31-118.18c-56.4,0-100.14,41.82-100.14,107.05c0,61.01,36.07,107.82,101.29,107.82
	c50.26,0,82.88-29.16,92.47-64.84h-36.07c-8.83,20.34-25.71,34.15-56.4,34.15C1753.27,632.49,1721.81,611.01,1720.27,566.5
	 M1628.96,512.02h36.45c-6.52-39.14-36.83-64.08-81.34-64.08c-45.66,0-82.49,21.1-82.49,57.55c0,38.37,30.7,51.41,58.7,57.17
	l30.69,6.14c22.25,4.6,41.82,13.43,41.82,34.15c0,19.18-21.49,30.7-47.96,30.7c-30.69,0-47.19-15.73-52.56-42.21h-36.83
	c3.84,36.07,34.53,71.75,88.63,71.75c47.19,0,84.03-23.41,84.03-64.08c0-39.9-33-54.1-70.6-61.39l-29.16-5.76
	c-19.95-3.84-31.46-11.51-31.46-28.01c0-18.8,23.02-26.09,43.36-26.09C1604.4,477.87,1623.59,487.46,1628.96,512.02 M1494.67,488.23
	v-37.22c-3.84-0.38-6.91-0.38-10.36-0.38c-26.86,0.77-47.96,13.81-58.32,37.22v-36.07h-34.15V658.2h34.92V550
	c0-45.28,16.11-63.31,48.34-63.31C1480.85,486.69,1487.38,487.46,1494.67,488.23 M1215.73,536.57
	c3.07-41.44,31.08-58.32,62.16-58.32c36.83,0,58.7,29.16,59.47,58.32H1215.73z M1215.34,566.5h158.85
	c4.6-65.23-33.38-118.18-96.31-118.18c-56.4,0-100.14,41.82-100.14,107.05c0,61.01,36.07,107.82,101.29,107.82
	c50.26,0,82.88-29.16,92.47-64.84h-36.07c-8.82,20.34-25.71,34.15-56.4,34.15C1248.34,632.49,1216.88,611.01,1215.34,566.5
	 M1091.41,609.86l-56.02-158.08h-38.75l77.89,206.42h31.08l77.89-206.42h-36.07L1091.41,609.86z M739.19,658.2V546.16
	c0-44.12,19.95-67.53,49.88-67.53c37.99,0,44.12,27.63,44.12,59.47V658.2h34.92V546.16c0-44.12,19.95-67.53,49.88-67.53
	c37.98,0,44.12,27.63,44.12,59.47V658.2h34.91V527.75c0-47.19-18.8-79.42-66.76-79.42c-28.78,0-52.95,11.13-69.45,36.45
	c-9.21-22.64-28.01-36.45-59.47-36.45c-31.08,0-50.26,14.96-62.16,34.53v-31.08h-34.91V658.2H739.19z M644.04,512.02h36.45
	c-6.52-39.14-36.83-64.08-81.34-64.08c-45.66,0-82.49,21.1-82.49,57.55c0,38.37,30.7,51.41,58.7,57.17l30.7,6.14
	c22.25,4.6,41.82,13.43,41.82,34.15c0,19.18-21.49,30.7-47.96,30.7c-30.69,0-47.19-15.73-52.56-42.21h-36.83
	c3.84,36.07,34.53,71.75,88.63,71.75c47.19,0,84.03-23.41,84.03-64.08c0-39.9-33-54.1-70.6-61.39l-29.16-5.76
	c-19.95-3.84-31.46-11.51-31.46-28.01c0-18.8,23.02-26.09,43.36-26.09C619.48,477.87,638.66,487.46,644.04,512.02 M452.58,510.48
	c5.76,11.51,9.59,26.47,9.59,45.28c0,52.95-30.31,76.74-61.77,76.74c-14.96,0-29.16-4.6-40.67-15.35L452.58,510.48z M347.45,599.88
	c-5.37-11.13-8.82-25.71-8.82-44.12c0-56.4,30.31-76.74,61.77-76.74c14.2,0,28.39,4.6,39.52,14.96L347.45,599.88z M461.4,468.66
	c-17.65-13.81-39.9-20.34-61.01-20.34c-47.96,0-98.99,32.61-98.99,107.43c0,31.08,8.44,54.48,22.25,71.75l-19.18,21.87l14.96,13.81
	l18.42-21.1c18.03,14.2,40.67,21.1,62.54,21.1c47.96,0,98.99-32.61,98.99-107.43c0-31.46-9.21-55.25-23.02-72.52l15.35-17.65
	l-15.73-13.43L461.4,468.66z M286.44,569.57h-37.98c-8.83,35.68-36.07,60.62-80.19,60.62c-51.8,0-88.63-41.44-88.63-111.65
	c0-72.13,38.37-110.5,87.48-110.5c44.51,0,71.37,26.09,79.81,60.62h37.98c-11.89-59.47-58.32-93.62-115.87-93.62
	c-78.66,0-129.3,57.17-129.3,143.5c0,84.79,46.43,144.65,126.23,144.65C226.2,663.19,274.17,630.96,286.44,569.57"/>
</svg>
