<?xml version="1.0" encoding="utf-8"?>
<!-- Generator: Adobe Illustrator 24.0.1, SVG Export Plug-In . SVG Version: 6.00 Build 0)  -->
<svg version="1.1" id="Layer_1" xmlns="http://www.w3.org/2000/svg" xmlns:xlink="http://www.w3.org/1999/xlink" x="0px" y="0px"
	 viewBox="0 0 1839 288" style="enable-background:new 0 0 1839 288;" xml:space="preserve">
<style type="text/css">
	.st0{fill:#1E7880;}
	.st1{fill:none;}
</style>
<path class="st0" d="M1680.66,161.57c3.07-41.44,31.08-58.32,62.16-58.32c36.83,0,58.71,29.16,59.47,58.32H1680.66z M1680.27,191.5
	h158.85c4.6-65.23-33.38-118.17-96.31-118.17c-56.4,0-100.14,41.82-100.14,107.05c0,61.01,36.07,107.82,101.29,107.82
	c50.26,0,82.88-29.16,92.47-64.84h-36.07c-8.83,20.34-25.71,34.15-56.4,34.15C1713.27,257.49,1681.81,236.01,1680.27,191.5
	 M1588.96,137.02h36.45c-6.52-39.14-36.83-64.08-81.34-64.08c-45.66,0-82.49,21.1-82.49,57.55c0,38.37,30.7,51.41,58.7,57.17
	l30.69,6.14c22.25,4.6,41.82,13.43,41.82,34.15c0,19.18-21.49,30.7-47.96,30.7c-30.69,0-47.19-15.73-52.56-42.21h-36.83
	c3.84,36.07,34.53,71.75,88.63,71.75c47.19,0,84.03-23.41,84.03-64.08c0-39.9-33-54.1-70.6-61.39l-29.16-5.75
	c-19.95-3.84-31.46-11.51-31.46-28.01c0-18.8,23.02-26.09,43.36-26.09C1564.4,102.87,1583.59,112.46,1588.96,137.02 M1454.67,113.23
	V76.01c-3.84-0.38-6.91-0.38-10.36-0.38c-26.86,0.77-47.96,13.81-58.32,37.22V76.78h-34.15V283.2h34.92V175
	c0-45.27,16.11-63.31,48.34-63.31C1440.85,111.69,1447.38,112.46,1454.67,113.23 M1175.73,161.57
	c3.07-41.44,31.08-58.32,62.16-58.32c36.83,0,58.7,29.16,59.47,58.32H1175.73z M1175.34,191.5h158.85
	c4.6-65.23-33.38-118.17-96.31-118.17c-56.4,0-100.14,41.82-100.14,107.05c0,61.01,36.07,107.82,101.29,107.82
	c50.26,0,82.88-29.16,92.47-64.84h-36.07c-8.82,20.34-25.71,34.15-56.4,34.15C1208.34,257.49,1176.88,236.01,1175.34,191.5
	 M1051.41,234.86L995.39,76.78h-38.75l77.89,206.42h31.08l77.89-206.42h-36.07L1051.41,234.86z M699.19,283.2V171.16
	c0-44.12,19.95-67.53,49.88-67.53c37.99,0,44.12,27.63,44.12,59.47V283.2h34.92V171.16c0-44.12,19.95-67.53,49.88-67.53
	c37.98,0,44.12,27.63,44.12,59.47V283.2h34.91V152.75c0-47.19-18.8-79.42-66.76-79.42c-28.78,0-52.95,11.13-69.45,36.45
	c-9.21-22.64-28.01-36.45-59.47-36.45c-31.08,0-50.26,14.96-62.16,34.53V76.78h-34.91V283.2H699.19z M604.04,137.02h36.45
	c-6.52-39.14-36.83-64.08-81.34-64.08c-45.66,0-82.49,21.1-82.49,57.55c0,38.37,30.7,51.41,58.7,57.17l30.7,6.14
	c22.25,4.6,41.82,13.43,41.82,34.15c0,19.18-21.49,30.7-47.96,30.7c-30.69,0-47.19-15.73-52.56-42.21h-36.83
	c3.84,36.07,34.53,71.75,88.63,71.75c47.19,0,84.03-23.41,84.03-64.08c0-39.9-33-54.1-70.6-61.39l-29.16-5.75
	c-19.95-3.84-31.46-11.51-31.46-28.01c0-18.8,23.02-26.09,43.36-26.09C579.48,102.87,598.66,112.46,604.04,137.02 M412.58,135.48
	c5.76,11.51,9.59,26.47,9.59,45.27c0,52.95-30.31,76.74-61.77,76.74c-14.96,0-29.16-4.61-40.67-15.35L412.58,135.48z M307.45,224.88
	c-5.37-11.13-8.82-25.71-8.82-44.12c0-56.4,30.31-76.74,61.77-76.74c14.2,0,28.39,4.6,39.52,14.96L307.45,224.88z M421.4,93.66
	c-17.65-13.81-39.9-20.34-61.01-20.34c-47.96,0-98.99,32.61-98.99,107.43c0,31.08,8.44,54.48,22.25,71.75l-19.18,21.87l14.96,13.81
	l18.42-21.1c18.03,14.2,40.67,21.1,62.54,21.1c47.96,0,98.99-32.61,98.99-107.43c0-31.46-9.21-55.25-23.02-72.52l15.35-17.65
	l-15.73-13.43L421.4,93.66z M246.44,194.57h-37.99c-8.83,35.68-36.07,60.62-80.19,60.62c-51.8,0-88.63-41.44-88.63-111.65
	c0-72.13,38.37-110.5,87.48-110.5c44.51,0,71.37,26.09,79.81,60.62h37.99C233.01,34.19,186.59,0.04,129.04,0.04
	c-78.66,0-129.3,57.17-129.3,143.5c0,84.79,46.43,144.65,126.23,144.65C186.2,288.19,234.17,255.96,246.44,194.57"/>
<rect x="-0.27" y="0.04" class="st1" width="1839.77" height="288.15"/>
</svg>
